<?xml version="1.0" encoding="UTF-8"?>
<svg version="1.1" xmlns="http://www.w3.org/2000/svg" viewBox="0 0 24 24" fill="currentColor" className="w-5 h-5" >
<path d="M0 0 C69.3 0 138.6 0 210 0 C210 79.53 210 159.06 210 241 C140.7 241 71.4 241 0 241 C0 161.47 0 81.94 0 0 Z " fill="#D5BA34" transform="translate(0,0)"/>
<path d="M0 0 C27.06 0 54.12 0 82 0 C82 8.46622907 81.80216171 16.20957683 80.75 24.5 C79.27233085 36.96066034 78.09850731 49.43822203 77 61.9375 C76.91547577 62.89650208 76.83095154 63.85550415 76.74386597 64.84356689 C75.84086982 75.11098743 74.96238692 85.38032648 74.11328125 95.65234375 C74.0443869 96.48509323 73.97549255 97.31784271 73.9045105 98.17582703 C73.58271154 102.07385419 73.26408341 105.9720988 72.95117188 109.87084961 C72.8385463 111.25504595 72.72591635 112.63924193 72.61328125 114.0234375 C72.47079956 115.80113525 72.47079956 115.80113525 72.32543945 117.61474609 C72.09890474 119.97118293 71.81057996 122.32215365 71.47485352 124.66552734 C71.10544465 127.25955626 70.85738489 129.71683088 70.7890625 132.328125 C70.76255615 133.11550049 70.7360498 133.90287598 70.70874023 134.71411133 C70.68110596 135.55095459 70.65347168 136.38779785 70.625 137.25 C70.11555138 150.23680264 68.56004135 163.10434306 67 176 C66.23558594 176.1858667 65.47117187 176.3717334 64.68359375 176.56323242 C47.3473495 180.6922291 47.3473495 180.6922291 30.25 185.6875 C20.3092886 188.92276912 10.36241224 191.51965539 0 193 C0 129.31 0 65.62 0 0 Z " fill="#FCD93F" transform="translate(105,27)"/>
<path d="M0 0 C69.3 0 138.6 0 210 0 C210 79.53 210 159.06 210 241 C140.7 241 71.4 241 0 241 C0 161.47 0 81.94 0 0 Z M5 9 C4.95818081 16.82073444 4.95818081 16.82073444 5.37963867 24.54248047 C5.50587364 26.00434532 5.50587364 26.00434532 5.63465881 27.4957428 C5.72815109 28.52581955 5.82164337 29.5558963 5.91796875 30.6171875 C6.0153685 31.72698471 6.11276825 32.83678192 6.21311951 33.98020935 C6.53336908 37.61222538 6.86024813 41.24360873 7.1875 44.875 C7.41407239 47.42470797 7.64046959 49.97443152 7.86669922 52.52416992 C9.47467113 70.55579066 11.18858942 88.57647872 12.94488525 106.59417725 C14.37619815 121.28474995 15.70891837 135.97753276 16.90234375 150.68920898 C17.82909256 162.09371264 18.82544133 173.49129284 19.85519409 184.88696289 C20.03338246 186.86035723 20.21074633 188.8338262 20.38723755 190.80737305 C20.63338486 193.55669894 20.88262184 196.30572696 21.1328125 199.0546875 C21.20560928 199.87174164 21.27840607 200.68879578 21.35340881 201.53060913 C21.73938281 205.72592114 22.24227892 209.85120736 23 214 C34.66454289 217.86051287 46.24733859 221.52348275 58.2734375 224.078125 C61.70767449 224.92768467 64.83129003 226.0282622 68.11572266 227.30859375 C70.69915842 228.2565453 73.30660779 228.82342766 76 229.375 C80.49174994 230.35169446 84.80822736 231.54494628 89.16259766 232.99487305 C100.9677687 236.91198068 107.89789091 236.31644713 119.76416016 232.66796875 C124.27736891 231.31962423 128.82922981 230.10804631 133.375 228.875 C134.30207764 228.62153809 135.22915527 228.36807617 136.18432617 228.10693359 C140.78958944 226.85174355 145.39989315 225.63258007 150.03369141 224.48730469 C162.49285675 221.39958504 174.78136806 217.93221429 187 214 C189.26036643 195.53712728 191.04426933 177.05227241 192.62853622 158.52082825 C193.20586067 151.78668124 193.79473841 145.05352762 194.3828125 138.3203125 C194.44907774 137.56040512 194.51534298 136.80049774 194.58361626 136.01756287 C195.55225517 124.92163484 196.56378247 113.83038352 197.6171875 102.7421875 C197.68306376 102.04868509 197.74894001 101.35518269 197.81681252 100.64066505 C198.14431479 97.19553826 198.47253896 93.7504806 198.80105591 90.30545044 C200.63884682 71.0270849 202.43390232 51.75017893 203.875 32.4375 C203.93666351 31.61793823 203.99832703 30.79837646 204.06185913 29.95397949 C204.58377067 22.95164393 205 16.03029831 205 9 C139 9 73 9 5 9 Z " fill="#FDFEFC" transform="translate(0,0)"/>
<path d="M0 0 C21.12 0 42.24 0 64 0 C63 24 63 24 62 25 C58.89748799 25.08874135 55.8173188 25.11518455 52.71484375 25.09765625 C51.78402481 25.0962413 50.85320587 25.09482635 49.8941803 25.09336853 C46.90858809 25.08775172 43.92306971 25.0751964 40.9375 25.0625 C38.91862087 25.05748716 36.89974057 25.05292388 34.88085938 25.04882812 C29.92052129 25.03862587 24.9603437 25.01905382 20 25 C20 36.55 20 48.1 20 60 C24.08375 59.525625 28.1675 59.05125 32.375 58.5625 C33.66196777 58.41498291 34.94893555 58.26746582 36.27490234 58.11547852 C37.28504395 57.99615967 38.29518555 57.87684082 39.3359375 57.75390625 C40.37282715 57.63345947 41.4097168 57.5130127 42.47802734 57.38891602 C44.98792666 57.1333991 44.98792666 57.1333991 47 56 C49.04055005 55.92934383 51.08334257 55.91578024 53.125 55.9375 C54.22070312 55.94652344 55.31640625 55.95554688 56.4453125 55.96484375 C57.70988281 55.98224609 57.70988281 55.98224609 59 56 C59.39682177 68.757085 58.61301062 81.12148301 57.14404297 93.79882812 C56.09552951 102.86178359 55.37757621 111.88609142 55 121 C42.51480638 124.44419134 42.51480638 124.44419134 36 124 C36 124.66 36 125.32 36 126 C9.88142292 134 9.88142292 134 0 134 C0 126.41 0 118.82 0 111 C10.125 107.625 10.125 107.625 15 108 C15 107.34 15 106.68 15 106 C20.38027025 104.80911014 25.45291384 103.7080481 31 104 C31 103.34 31 102.68 31 102 C33.64 102 36.28 102 39 102 C39 95.4 39 88.8 39 82 C35.22899165 82.62395801 31.45819283 83.24914045 27.6875 83.875 C26.1087207 84.13603516 26.1087207 84.13603516 24.49804688 84.40234375 C18.43391715 85.40992223 12.38628566 86.46912729 6.35083008 87.63720703 C4 88 4 88 0 88 C0 58.96 0 29.92 0 0 Z " fill="#FCFDFA" transform="translate(113,52)"/>
<path d="M0 0 C6.6 0 13.2 0 20 0 C20 43.89 20 87.78 20 133 C9.87231061 131.87470118 9.87231061 131.87470118 5.9921875 130.87890625 C5.15042969 130.66556641 4.30867188 130.45222656 3.44140625 130.23242188 C2.59449219 130.01134766 1.74757812 129.79027344 0.875 129.5625 C0.02035156 129.34529297 -0.83429688 129.12808594 -1.71484375 128.90429688 C-10.3671296 126.69138506 -18.82264267 124.08488967 -27.28125 121.21875 C-30.82625813 120.05694061 -34.41300225 119.0248565 -38 118 C-38 110.41 -38 102.82 -38 95 C-29 96 -29 96 -21 99 C-14.07 100.65 -7.14 102.3 0 104 C0 69.68 0 35.36 0 0 Z " fill="#ECEBEB" transform="translate(77,53)"/>
<path d="M0 0 C1.22445394 -0.00233999 1.22445394 -0.00233999 2.47364432 -0.00472724 C5.22435536 -0.0087338 7.97501176 -0.00554891 10.72572327 -0.00241089 C12.69156934 -0.00376509 14.65741516 -0.00554513 16.6232605 -0.00772095 C21.97441881 -0.01229331 27.32555791 -0.01050644 32.67671657 -0.00734186 C38.26739858 -0.00481689 43.85807891 -0.00715622 49.44876099 -0.00872803 C58.83991289 -0.01054947 68.23105693 -0.00814423 77.62220764 -0.00338745 C88.48988441 0.00205354 99.35754241 0.00029359 110.22521871 -0.00521386 C119.54327713 -0.00974758 128.86132989 -0.01039421 138.17938906 -0.00777519 C143.7501494 -0.00621365 149.32090091 -0.00601528 154.89166069 -0.00931168 C160.12907606 -0.01219409 165.36646718 -0.01020783 170.60387993 -0.00441742 C172.52962707 -0.00309175 174.45537625 -0.00348068 176.38112259 -0.00568008 C179.00305162 -0.00839917 181.62490218 -0.00500106 184.24682617 0 C185.39895651 -0.00334608 185.39895651 -0.00334608 186.57436222 -0.00675976 C189.71782266 0.00492705 192.18124673 0.12509758 195.18690491 1.12698364 C196.03352168 4.66921869 196.22594994 7.60029667 195.84315491 11.21682739 C195.74260803 12.17959595 195.64206116 13.1423645 195.53846741 14.13430786 C194.96775609 18.99248793 194.33270504 23.84080666 193.68690491 28.68948364 C192.59802922 37.04709356 191.78986784 45.34632181 191.47792053 53.76980591 C191.27750492 58.94578363 191.27750492 58.94578363 190.18690491 61.12698364 C190.01323802 62.54431825 189.89162265 63.96823542 189.79798889 65.39309692 C189.73800217 66.27385895 189.67801544 67.15462097 189.61621094 68.06207275 C189.55575089 69.01419647 189.49529083 69.96632019 189.43299866 70.94729614 C189.36782547 71.92109222 189.30265228 72.89488831 189.23550415 73.89819336 C189.02777868 77.01587194 188.82602755 80.13390501 188.62440491 83.25198364 C188.48482355 85.36268673 188.34485457 87.47336421 188.20448303 89.58401489 C187.86078799 94.76471561 187.52200036 99.94571998 187.18690491 105.12698364 C186.52690491 105.12698364 185.86690491 105.12698364 185.18690491 105.12698364 C184.85690491 106.44698364 184.52690491 107.76698364 184.18690491 109.12698364 C184.68704333 96.96706864 185.49485417 84.90396032 186.80076599 72.80444336 C188.62249135 55.87029581 190.04326378 38.92391498 191.23524475 21.93460083 C191.29258286 21.12658524 191.34992096 20.31856964 191.40899658 19.48606873 C191.51462459 17.98997708 191.61794766 16.49371988 191.71835327 14.99726868 C192.0237816 10.64673047 192.56729269 6.46426913 193.18690491 2.12698364 C127.18690491 2.12698364 61.18690491 2.12698364 -6.81309509 2.12698364 C-5.82309509 12.35698364 -4.83309509 22.58698364 -3.81309509 33.12698364 C-3.81309509 35.76698364 -3.81309509 38.40698364 -3.81309509 41.12698364 C-6.296072 37.40251829 -6.89582924 34.52791188 -7.09434509 30.12307739 C-7.15041931 29.01222778 -7.15041931 29.01222778 -7.20762634 27.87893677 C-7.27811648 26.33206985 -7.34842809 24.78519479 -7.41856384 23.23831177 C-7.58250493 19.9962355 -7.7810979 17.22297521 -8.81309509 14.12698364 C-8.85263744 11.79398539 -8.85711242 9.45990176 -8.81309509 7.12698364 C-9.80309509 6.79698364 -10.79309509 6.46698364 -11.81309509 6.12698364 C-11.81309509 5.13698364 -11.81309509 4.14698364 -11.81309509 3.12698364 C-11.15309509 3.12698364 -10.49309509 3.12698364 -9.81309509 3.12698364 C-9.81309509 2.46698364 -9.81309509 1.80698364 -9.81309509 1.12698364 C-6.70414467 -0.42749157 -3.41207528 -0.00988085 0 0 Z " fill="#FEF9E1" transform="translate(11.813095092773438,6.873016357421875)"/>
<path d="M0 0 C21.12 0 42.24 0 64 0 C63 24 63 24 62 25 C58.89748799 25.08874135 55.8173188 25.11518455 52.71484375 25.09765625 C51.78402481 25.0962413 50.85320587 25.09482635 49.8941803 25.09336853 C46.90858809 25.08775172 43.92306971 25.0751964 40.9375 25.0625 C38.91862087 25.05748716 36.89974057 25.05292388 34.88085938 25.04882812 C29.92052129 25.03862587 24.9603437 25.01905382 20 25 C20 36.55 20 48.1 20 60 C19.67 60 19.34 60 19 60 C18.9753499 54.89136104 18.95716393 49.78275641 18.94506836 44.67407227 C18.94002796 42.93480832 18.9331957 41.19554864 18.92456055 39.45629883 C18.91248208 36.96174063 18.90676892 34.46723827 18.90234375 31.97265625 C18.89718246 31.19036148 18.89202118 30.40806671 18.88670349 29.60206604 C18.88650774 27.73432886 18.93800306 25.86670796 19 24 C20 23 20 23 23.96899414 22.88647461 C25.74105607 22.8866338 27.5131226 22.89233215 29.28515625 22.90234375 C30.21597519 22.9037587 31.14679413 22.90517365 32.1058197 22.90663147 C35.09141191 22.91224828 38.07693029 22.9248036 41.0625 22.9375 C43.08137913 22.94251284 45.10025943 22.94707612 47.11914062 22.95117188 C52.07947871 22.96137413 57.0396563 22.98094618 62 23 C62 16.4 62 9.8 62 3 C42.2 3 22.4 3 2 3 C2 30.06 2 57.12 2 85 C7.445 84.505 7.445 84.505 13 84 C13.495 83.01 13.495 83.01 14 82 C14.95712891 82.01740234 14.95712891 82.01740234 15.93359375 82.03515625 C17.17302734 82.04869141 17.17302734 82.04869141 18.4375 82.0625 C19.26121094 82.07410156 20.08492187 82.08570313 20.93359375 82.09765625 C22.99163938 82.23267348 22.99163938 82.23267348 24 81 C26.32817964 80.63239269 28.6618385 80.29758419 31 80 C31 79.67 31 79.34 31 79 C38.35678392 78.63819095 38.35678392 78.63819095 41 80.125 C42.42098605 82.78934884 42.19767261 85.03491085 42 88 C41.34 88 40.68 88 40 88 C40 91.96 40 95.92 40 100 C39.67 100 39.34 100 39 100 C39 94.06 39 88.12 39 82 C35.22899165 82.62395801 31.45819283 83.24914045 27.6875 83.875 C26.1087207 84.13603516 26.1087207 84.13603516 24.49804688 84.40234375 C18.43391715 85.40992223 12.38628566 86.46912729 6.35083008 87.63720703 C4 88 4 88 0 88 C0 58.96 0 29.92 0 0 Z " fill="#FEF4C0" transform="translate(113,52)"/>
<path d="M0 0 C13.86 0 27.72 0 42 0 C40 2 40 2 36.28466797 2.22705078 C34.68713948 2.22673351 33.08958973 2.21539982 31.4921875 2.1953125 C30.23125778 2.19106766 30.23125778 2.19106766 28.94485474 2.18673706 C26.25475954 2.1755243 23.5649949 2.15041803 20.875 2.125 C19.05339022 2.1149716 17.23177523 2.10584551 15.41015625 2.09765625 C10.93987375 2.07728122 6.47030774 2.03813533 2 2 C2 11.9 2 21.8 2 32 C3.65 32 5.3 32 7 32 C6.67 31.01 6.34 30.02 6 29 C7.65 29 9.3 29 11 29 C11 29.66 11 30.32 11 31 C12.98 31 14.96 31 17 31 C17 30.34 17 29.68 17 29 C24.92 29.33 32.84 29.66 41 30 C41.93825328 34.69126642 41.92759102 38.61667415 41.5625 43.3125 C41.48418945 44.42334961 41.48418945 44.42334961 41.40429688 45.55664062 C41.27549848 47.37152709 41.13856738 49.18583325 41 51 C41.66 51 42.32 51 43 51 C43.33 49.35 43.66 47.7 44 46 C44.33 46 44.66 46 45 46 C45.12190678 54.39802254 44.84327749 62.64251778 44 71 C43.67 71 43.34 71 43 71 C43 68.69 43 66.38 43 64 C41.37323309 65.00785521 41.37323309 65.00785521 40 67 C39.64667367 69.7078698 39.44303471 72.22340104 39.375 74.9375 C38.97584034 86.02415966 38.97584034 86.02415966 37 88 C36.76807135 89.51469448 36.58784762 91.03754562 36.4375 92.5625 C36.35371094 93.38878906 36.26992187 94.21507812 36.18359375 95.06640625 C36.12300781 95.70449219 36.06242187 96.34257812 36 97 C33.03 97.495 33.03 97.495 30 98 C30 98.66 30 99.32 30 100 C26.37 100 22.74 100 19 100 C19 100.66 19 101.32 19 102 C15.78548731 103.60725635 12.56387464 103.05748185 9 103 C11 101 11 101 13.625 100.875 C14.40875 100.91625 15.1925 100.9575 16 101 C16 100.34 16 99.68 16 99 C18.22771342 98.49356447 20.45724076 97.9951038 22.6875 97.5 C23.92886719 97.2215625 25.17023438 96.943125 26.44921875 96.65625 C29.42398218 96.10645874 31.99368602 95.86204295 35 96 C34.94779297 94.64648438 34.94779297 94.64648438 34.89453125 93.265625 C34.62745436 82.57563045 35.63007074 72.17831111 36.85595703 61.56445312 C38.01478548 51.3822322 38.65790844 41.23915421 39 31 C30.79650171 31.46073536 30.79650171 31.46073536 22.75 33 C14.97999817 35.07200049 8.15768709 35 0 35 C0 23.45 0 11.9 0 0 Z " fill="#F7DA52" transform="translate(133,77)"/>
<path d="M0 0 C6.6 0 13.2 0 20 0 C20 43.89 20 87.78 20 133 C13.77004856 132.30778317 8.85663575 131.5972643 3 130 C7 129 7 129 17 130 C17.33 87.76 17.66 45.52 18 2 C12.72 2 7.44 2 2 2 C2.00222061 3.21664841 2.00444122 4.43329681 2.00672913 5.68681335 C2.02699542 17.14913187 2.04198899 28.61144675 2.05181217 40.07377911 C2.05703211 45.96675551 2.06411369 51.85971746 2.07543945 57.75268555 C2.08629983 63.43905085 2.09228354 69.12540224 2.09487724 74.81177711 C2.0967258 76.9819034 2.1003355 79.15202891 2.10573006 81.32214928 C2.11298223 84.3602094 2.11398917 87.39821192 2.11352539 90.4362793 C2.11712067 91.33467529 2.12071594 92.23307129 2.12442017 93.15869141 C2.11767447 97.23880014 2.03118879 101.02033206 1 105 C-0.65 105 -2.3 105 -4 105 C-2.02 104.505 -2.02 104.505 0 104 C0 69.68 0 35.36 0 0 Z " fill="#EEE1BD" transform="translate(77,53)"/>
<path d="M0 0 C0.268125 0.639375 0.53625 1.27875 0.8125 1.9375 C1.88667752 4.33131686 1.88667752 4.33131686 5 5 C5.66 3.68 6.32 2.36 7 1 C7 5.62 7 10.24 7 15 C5.68 15.33 4.36 15.66 3 16 C2.67 55.6 2.34 95.2 2 136 C1.34 136 0.68 136 0 136 C0 92.77 0 49.54 0 5 C-6.6 5 -13.2 5 -20 5 C-19.67 4.01 -19.34 3.02 -19 2 C-13.06 2.33 -7.12 2.66 -1 3 C-0.67 2.01 -0.34 1.02 0 0 Z " fill="#D5BE59" transform="translate(97,48)"/>
<path d="M0 0 C66 0 132 0 200 0 C199.67 7.59 199.34 15.18 199 23 C198.67 23 198.34 23 198 23 C198 16.07 198 9.14 198 2 C133.32 2 68.64 2 2 2 C1.16067097 11.33003164 1.16067097 11.33003164 4 19 C4.14427873 20.37845679 4.2268827 21.7635174 4.28125 23.1484375 C4.33732422 24.40914062 4.33732422 24.40914062 4.39453125 25.6953125 C4.42933594 26.57960938 4.46414062 27.46390625 4.5 28.375 C4.56897468 30.11214017 4.64173583 31.84913518 4.71875 33.5859375 C4.74904297 34.3598584 4.77933594 35.1337793 4.81054688 35.93115234 C4.93856868 38.19636798 4.93856868 38.19636798 6 41 C6.14986411 42.9906444 6.24828038 44.98535391 6.31640625 46.98046875 C6.35830078 48.14384766 6.40019531 49.30722656 6.44335938 50.50585938 C6.48267578 51.72080078 6.52199219 52.93574219 6.5625 54.1875 C6.60568359 55.41404297 6.64886719 56.64058594 6.69335938 57.90429688 C6.7995309 60.93608381 6.90157952 63.96795315 7 67 C6.34 67 5.68 67 5 67 C4.34283597 59.74129573 3.69053905 52.4821708 3.04424286 45.22249031 C2.743908 41.85058558 2.44197566 38.47884068 2.13623047 35.10742188 C1.78456239 31.22041309 1.43862603 27.33292909 1.09375 23.4453125 C0.9843811 22.25011993 0.87501221 21.05492737 0.7623291 19.82351685 C0.66222534 18.68308929 0.56212158 17.54266174 0.45898438 16.36767578 C0.37015991 15.37728302 0.28133545 14.38689026 0.18981934 13.3664856 C-0.06103071 8.91760762 0 4.45594445 0 0 Z " fill="#D0C075" transform="translate(5,9)"/>
<path d="M0 0 C0.33 0 0.66 0 1 0 C1.11069824 1.2281543 1.22139648 2.45630859 1.33544922 3.72167969 C1.75569901 8.3812732 2.17723817 13.0407494 2.59912109 17.70019531 C2.77979854 19.69756052 2.96014947 21.69495529 3.14013672 23.69238281 C3.40240993 26.6022968 3.6657244 29.51211383 3.9296875 32.421875 C4.06053741 33.86596741 4.06053741 33.86596741 4.19403076 35.3392334 C4.63205536 40.1304605 5.08777209 44.91900446 5.57910156 49.70507812 C5.6720047 50.61074524 5.76490784 51.51641235 5.86062622 52.44952393 C6.03650282 54.14802773 6.21508561 55.84625447 6.39694214 57.54412842 C6.83073627 61.71897683 7.09331695 65.79485223 7 70 C8.8253125 70.37125 8.8253125 70.37125 10.6875 70.75 C15.8511023 71.89022764 20.8492037 73.46107581 25.890625 75.046875 C29.5688762 76.17437914 33.25605372 77.11907146 37 78 C37 78.33 37 78.66 37 79 C35.96875 78.979375 34.9375 78.95875 33.875 78.9375 C30.44847031 78.99276661 27.35427586 79.34550715 24 80 C23.505 79.01 23.505 79.01 23 78 C20.69 78 18.38 78 16 78 C16 76.68 16 75.36 16 74 C13.03 73.67 10.06 73.34 7 73 C3.81430599 64.96457628 3.07671657 56.97272581 2.375 48.4375 C2.25355172 47.07218101 2.13116046 45.70694556 2.0078125 44.34179688 C0.90558963 31.93048054 -0.17380806 19.46650319 -0.0625 7 C-0.05798828 6.3090625 -0.05347656 5.618125 -0.04882812 4.90625 C-0.03747078 3.27079178 -0.01957237 1.63538054 0 0 Z " fill="#FDF5D7" transform="translate(16,144)"/>
<path d="M0 0 C0.99 0.33 1.98 0.66 3 1 C3.23352858 6.95497874 2.52856569 12.45313815 1.57421875 18.328125 C-0.13760206 29.27446214 -1.20653771 40.21778253 -1.65844727 51.2878418 C-1.90016326 56.80032652 -1.90016326 56.80032652 -3 59 C-3.17366689 60.41733461 -3.29528226 61.84125178 -3.38891602 63.26611328 C-3.44890274 64.14687531 -3.50888947 65.02763733 -3.57069397 65.93508911 C-3.63115402 66.88721283 -3.69161407 67.83933655 -3.75390625 68.8203125 C-3.81907944 69.79410858 -3.88425262 70.76790466 -3.95140076 71.77120972 C-4.15912623 74.8888883 -4.36087735 78.00692137 -4.5625 81.125 C-4.70208136 83.23570308 -4.84205034 85.34638057 -4.98242188 87.45703125 C-5.32611691 92.63773196 -5.66490455 97.81873634 -6 103 C-6.66 103 -7.32 103 -8 103 C-8.33 104.32 -8.66 105.64 -9 107 C-8.49986158 94.840085 -7.69205074 82.77697667 -6.38613892 70.67745972 C-4.56441355 53.74331216 -3.14364112 36.79693134 -1.95166016 19.80761719 C-1.865653 18.5955938 -1.865653 18.5955938 -1.77790833 17.35908508 C-1.67228032 15.86299344 -1.56895725 14.36673624 -1.46855164 12.87028503 C-1.16433148 8.5369562 -0.66051127 4.28965571 0 0 Z " fill="#FAF3CD" transform="translate(205,9)"/>
<path d="M0 0 C0 0.66 0 1.32 0 2 C0.99 2.495 0.99 2.495 2 3 C-0.31 3.33 -2.62 3.66 -5 4 C-5 4.66 -5 5.32 -5 6 C-8.28060548 7.97144367 -10.58332112 8.16993519 -14.375 8 C-18.67937389 7.90780458 -21.98913125 8.26557027 -26 10 C-26 10.99 -26 11.98 -26 13 C-29.47909371 13.05883728 -32.95805674 13.09387399 -36.4375 13.125 C-37.41138672 13.14175781 -38.38527344 13.15851563 -39.38867188 13.17578125 C-45.58848075 13.21725154 -51.00004295 12.57599699 -57 11 C-57 10.34 -57 9.68 -57 9 C-59.97 8.67 -62.94 8.34 -66 8 C-66 7.01 -66 6.02 -66 5 C-63.93636888 5.45321328 -61.87413493 5.91279106 -59.8125 6.375 C-58.66394531 6.63023437 -57.51539062 6.88546875 -56.33203125 7.1484375 C-53 8 -53 8 -50.3203125 9.078125 C-42.61887345 12.137956 -34.73074016 8.97358411 -27.2578125 6.67675781 C-22.63140783 5.29003703 -17.9701098 4.02704377 -13.3125 2.75 C-11.85904175 2.34467041 -11.85904175 2.34467041 -10.3762207 1.93115234 C-9.46445068 1.68059082 -8.55268066 1.4300293 -7.61328125 1.171875 C-6.79641846 0.9459668 -5.97955566 0.72005859 -5.13793945 0.48730469 C-3 0 -3 0 0 0 Z " fill="#FBF5D6" transform="translate(147,225)"/>
<path d="M0 0 C3.96 0 7.92 0 12 0 C12.39682177 12.757085 11.61301062 25.12148301 10.14404297 37.79882812 C9.09552951 46.86178359 8.37757621 55.88609142 8 65 C6.68 64.67 5.36 64.34 4 64 C4.66 64 5.32 64 6 64 C6.02505615 63.14768799 6.0501123 62.29537598 6.07592773 61.41723633 C6.17135569 58.23955034 6.27057124 55.06201106 6.37231445 51.88452148 C6.4154884 50.51217224 6.45717501 49.13977533 6.49731445 47.76733398 C6.55544392 45.78877932 6.6194571 43.8104003 6.68359375 41.83203125 C6.73858032 40.04889526 6.73858032 40.04889526 6.79467773 38.22973633 C6.97592759 35.37866096 7.42212479 32.78837964 8 30 C8.05379313 28.65469003 8.0640976 27.30682077 8.02734375 25.9609375 C8.01380859 25.22020996 8.00027344 24.47948242 7.98632812 23.71630859 C7.97021484 22.94367676 7.95410156 22.17104492 7.9375 21.375 C7.85167894 14.32193962 8.42094958 7.90834558 10 1 C6.7 1 3.4 1 0 1 C0 0.67 0 0.34 0 0 Z " fill="#FDF8CF" transform="translate(160,108)"/>
<path d="M0 0 C0.66 0 1.32 0 2 0 C2.08564209 1.17095215 2.17128418 2.3419043 2.25952148 3.54833984 C2.57770237 7.88345924 2.90140915 12.21815118 3.22680664 16.55273438 C3.36699317 18.4305516 3.5056711 20.30848208 3.64282227 22.18652344 C3.83996529 24.88247213 4.04249039 27.57796999 4.24609375 30.2734375 C4.3065538 31.11619232 4.36701385 31.95894714 4.42930603 32.82723999 C4.66206011 37.04820018 4.66206011 37.04820018 6 41 C6.15441209 43.10374996 6.24992639 45.21195119 6.31640625 47.3203125 C6.37924805 49.20556641 6.37924805 49.20556641 6.44335938 51.12890625 C6.48267578 52.44761719 6.52199219 53.76632813 6.5625 55.125 C6.60569512 56.46485751 6.64930973 57.80470156 6.69335938 59.14453125 C6.79970981 62.42957815 6.90173808 65.71470281 7 69 C9.64 69.33 12.28 69.66 15 70 C15 70.66 15 71.32 15 72 C12.03 71.34 9.06 70.68 6 70 C4.12918383 54.98039787 2.5754302 39.95638098 1.3125 24.875 C1.24606293 24.09419067 1.17962585 23.31338135 1.11117554 22.50891113 C0.92031074 20.25365149 0.73457498 17.99803336 0.55078125 15.7421875 C0.44419189 14.4413623 0.33760254 13.14053711 0.2277832 11.80029297 C-0.00909616 7.84824127 -0.03874673 3.95766233 0 0 Z " fill="#D2C261" transform="translate(17,144)"/>
<path d="M0 0 C0.33 0 0.66 0 1 0 C1.72324662 7.11153754 2.43385044 14.22426217 3.13623047 21.33789062 C3.37592597 23.75093258 3.61837231 26.1637031 3.86376953 28.57617188 C5.20166893 41.74765491 6.45654785 54.74996676 6 68 C5.67 68 5.34 68 5 68 C1.62895513 45.29522799 0.23232092 22.94369331 0 0 Z " fill="#FAF4D1" transform="translate(10,76)"/>
<path d="M0 0 C1.17664871 3.52994613 1.19850603 6.29455413 1 10 C0.34 10.99 -0.32 11.98 -1 13 C-1.4603764 16.19806665 -1.4603764 16.19806665 -1.625 19.6875 C-1.69976562 20.86699219 -1.77453125 22.04648438 -1.8515625 23.26171875 C-1.90054688 24.16535156 -1.94953125 25.06898437 -2 26 C-2.66 25.67 -3.32 25.34 -4 25 C-3.34 17.08 -2.68 9.16 -2 1 C-22.79 1 -43.58 1 -65 1 C-65 0.67 -65 0.34 -65 0 C-56.96811966 -0.153828 -48.93616355 -0.30200904 -40.90404797 -0.4429636 C-37.17449931 -0.50859084 -33.44500722 -0.57616944 -29.71557617 -0.64819336 C-26.11709434 -0.71761677 -22.51855429 -0.78193295 -18.91991615 -0.84269524 C-17.54635613 -0.86678788 -16.17282723 -0.89272683 -14.79933739 -0.92053413 C-12.87697743 -0.95913961 -10.95447795 -0.99059786 -9.03198242 -1.02172852 C-7.93722092 -1.04171402 -6.84245941 -1.06169952 -5.71452332 -1.08229065 C-3 -1 -3 -1 0 0 Z " fill="#F5D957" transform="translate(179,51)"/>
<path d="M0 0 C0.66 0 1.32 0 2 0 C1.51097234 18.76137066 -0.10582311 37.33977389 -2 56 C-2.33 56 -2.66 56 -3 56 C-3.33 50.72 -3.66 45.44 -4 40 C-3.67 40 -3.34 40 -3 40 C-3.01047363 39.19256348 -3.02094727 38.38512695 -3.03173828 37.55322266 C-3.07319831 33.91051318 -3.09929438 30.26785325 -3.125 26.625 C-3.14175781 25.35398437 -3.15851563 24.08296875 -3.17578125 22.7734375 C-3.18222656 21.56171875 -3.18867188 20.35 -3.1953125 19.1015625 C-3.20578613 17.98088379 -3.21625977 16.86020508 -3.22705078 15.70556641 C-3 13 -3 13 -1 11 C-0.53709779 8.33757179 -0.53709779 8.33757179 -0.375 5.375 C-0.30023438 4.37210938 -0.22546875 3.36921875 -0.1484375 2.3359375 C-0.09945312 1.56507812 -0.05046875 0.79421875 0 0 Z " fill="#D1C159" transform="translate(201,32)"/>
<path d="M0 0 C0.33 0 0.66 0 1 0 C1.04949353 4.91128067 1.08576382 9.82241566 1.10986328 14.73388672 C1.1199115 16.40415985 1.13355236 18.07441542 1.15087891 19.74462891 C1.17517926 22.14750504 1.18649487 24.55014827 1.1953125 26.953125 C1.20563507 27.69806213 1.21595764 28.44299927 1.22659302 29.21051025 C1.22805241 35.9772193 1.22805241 35.9772193 -1 39 C-7.60029375 41.94489027 -14.81643597 43.43658321 -22 44 C-18.82848903 41.88565935 -16.13567139 40.98044063 -12.5 39.875 C-11.3553125 39.52179688 -10.210625 39.16859375 -9.03125 38.8046875 C-6 38 -6 38 -3 38 C-2.95101562 37.2678125 -2.90203125 36.535625 -2.8515625 35.78125 C-2.02731217 23.84383144 -1.00949619 11.92292881 0 0 Z " fill="#FAF3CE" transform="translate(190,176)"/>
<path d="M0 0 C0.33 0 0.66 0 1 0 C1.06058594 0.92683594 1.12117187 1.85367187 1.18359375 2.80859375 C1.26738281 4.00613281 1.35117188 5.20367187 1.4375 6.4375 C1.51871094 7.63246094 1.59992187 8.82742187 1.68359375 10.05859375 C1.67656114 12.88570244 1.67656114 12.88570244 3 14 C3.14427873 15.37845679 3.2268827 16.7635174 3.28125 18.1484375 C3.31863281 18.98890625 3.35601562 19.829375 3.39453125 20.6953125 C3.44673828 22.02175781 3.44673828 22.02175781 3.5 23.375 C3.56897468 25.11214017 3.64173583 26.84913518 3.71875 28.5859375 C3.74904297 29.3598584 3.77933594 30.1337793 3.81054688 30.93115234 C3.93856868 33.19636798 3.93856868 33.19636798 5 36 C5.14986411 37.9906444 5.24828038 39.98535391 5.31640625 41.98046875 C5.35830078 43.14384766 5.40019531 44.30722656 5.44335938 45.50585938 C5.48267578 46.72080078 5.52199219 47.93574219 5.5625 49.1875 C5.60568359 50.41404297 5.64886719 51.64058594 5.69335938 52.90429688 C5.7995309 55.93608381 5.90157952 58.96795315 6 62 C5.34 62 4.68 62 4 62 C3.41932752 56.06432271 2.85026402 50.12767561 2.29101562 44.18994141 C2.10003756 42.17858347 1.90612452 40.1675016 1.70898438 38.15673828 C0.46006418 25.3935385 -0.28862131 12.82560948 0 0 Z " fill="#D3C25A" transform="translate(6,14)"/>
<path d="M0 0 C0 0.66 0 1.32 0 2 C0.66 2.33 1.32 2.66 2 3 C-0.31 3.33 -2.62 3.66 -5 4 C-5 4.66 -5 5.32 -5 6 C-8.33058046 8.01255455 -10.76916495 8.19241358 -14.625 8.0625 C-18.46174054 7.83502304 -18.46174054 7.83502304 -22 9 C-23.54023996 9.06950541 -25.08334988 9.08452357 -26.625 9.0625 C-27.85089844 9.04896484 -27.85089844 9.04896484 -29.1015625 9.03515625 C-30.04128906 9.01775391 -30.04128906 9.01775391 -31 9 C-28.26098725 7.55982067 -25.57858629 6.45813167 -22.62890625 5.52734375 C-21.39624023 5.13772461 -21.39624023 5.13772461 -20.13867188 4.74023438 C-19.28853516 4.47533203 -18.43839844 4.21042969 -17.5625 3.9375 C-16.71623047 3.66873047 -15.86996094 3.39996094 -14.99804688 3.12304688 C-5.05258339 0 -5.05258339 0 0 0 Z " fill="#F9F5DB" transform="translate(147,225)"/>
<path d="M0 0 C0.33 0 0.66 0 1 0 C1.1176305 10.06394247 0.87801178 19.96557967 0 30 C-1.98 30.33 -3.96 30.66 -6 31 C-6 31.66 -6 32.32 -6 33 C-9.63 33 -13.26 33 -17 33 C-17 33.66 -17 34.32 -17 35 C-20.21451269 36.60725635 -23.43612536 36.05748185 -27 36 C-25 34 -25 34 -22.375 33.875 C-21.59125 33.91625 -20.8075 33.9575 -20 34 C-20 33.34 -20 32.68 -20 32 C-17.77228658 31.49356447 -15.54275924 30.9951038 -13.3125 30.5 C-12.07113281 30.2215625 -10.82976562 29.943125 -9.55078125 29.65625 C-6.57601782 29.10645874 -4.00631398 28.86204295 -1 29 C-1.01160156 27.91203125 -1.02320313 26.8240625 -1.03515625 25.703125 C-1.09811134 17.07729344 -0.92672354 8.58874135 0 0 Z " fill="#F3E173" transform="translate(169,144)"/>
<path d="M0 0 C0.33 0 0.66 0 1 0 C1 6.93 1 13.86 1 21 C2.753125 20.54625 4.50625 20.0925 6.3125 19.625 C12.17363991 18.15798505 18.04304147 16.99762269 24 16 C25.216875 15.79375 26.43375 15.5875 27.6875 15.375 C28.450625 15.25125 29.21375 15.1275 30 15 C26.25261887 18.44090386 23.65944132 19.56296023 18.625 20.125 C13.24283686 20.79943829 13.24283686 20.79943829 8 22.125 C5 23 5 23 0 23 C0 15.41 0 7.82 0 0 Z " fill="#F4DF73" transform="translate(112,165)"/>
<path d="M0 0 C2.03125 0.0859375 2.03125 0.0859375 4.5 0.375 C5.3146875 0.46523437 6.129375 0.55546875 6.96875 0.6484375 C9 1 9 1 10 2 C11.30603242 2.30047671 12.62043324 2.56482664 13.9375 2.8125 C19.22485586 3.92607495 24.04881973 5.87068239 29 8 C25.82060165 9.58969918 22.84844342 8.12544098 19.5625 7.25 C18.90056641 7.07984375 18.23863281 6.9096875 17.55664062 6.734375 C11.68839013 5.21566507 5.8480088 3.59491149 0 2 C0 9.59 0 17.18 0 25 C-0.33 25 -0.66 25 -1 25 C-1.02886984 21.02084841 -1.04675406 17.04172347 -1.0625 13.0625 C-1.07087891 11.92619141 -1.07925781 10.78988281 -1.08789062 9.61914062 C-1.09111328 8.53955078 -1.09433594 7.45996094 -1.09765625 6.34765625 C-1.10289307 5.34742432 -1.10812988 4.34719238 -1.11352539 3.31665039 C-1 1 -1 1 0 0 Z " fill="#D4C26C" transform="translate(39,146)"/>
<path d="M0 0 C7.35678392 -0.36180905 7.35678392 -0.36180905 10 1.125 C11.42098605 3.78934884 11.19767261 6.03491085 11 9 C10.34 9 9.68 9 9 9 C9 12.96 9 16.92 9 21 C8.67 21 8.34 21 8 21 C8 15.06 8 9.12 8 3 C6.535625 3.33 5.07125 3.66 3.5625 4 C-1.39883404 5.00500632 -5.94908184 5.16293284 -11 5 C-7.57653445 1.85041169 -4.55737263 1.43820891 0 1 C0 0.67 0 0.34 0 0 Z " fill="#FCF4CB" transform="translate(144,131)"/>
<path d="M0 0 C-0.33 0.99 -0.66 1.98 -1 3 C-2.6396875 3.2165625 -2.6396875 3.2165625 -4.3125 3.4375 C-7.93122987 3.88288104 -7.93122987 3.88288104 -11 5 C-11 11.6 -11 18.2 -11 25 C-7.535 24.505 -7.535 24.505 -4 24 C-7.46214649 26.05164237 -8.59389235 26 -13 26 C-13 18.41 -13 10.82 -13 3 C-4 0 -4 0 0 0 Z " fill="#FEF8C9" transform="translate(126,160)"/>
<path d="M0 0 C0.66 0 1.32 0 2 0 C2.02505615 0.57032959 2.0501123 1.14065918 2.07592773 1.72827148 C2.19156549 4.29826157 2.31443624 6.86785527 2.4375 9.4375 C2.47681641 10.33533203 2.51613281 11.23316406 2.55664062 12.15820312 C2.59853516 13.01220703 2.64042969 13.86621094 2.68359375 14.74609375 C2.72025146 15.53685303 2.75690918 16.3276123 2.79467773 17.14233398 C2.80563257 19.01401441 2.80563257 19.01401441 4 20 C4.08767112 22.07262076 4.10695873 24.14820294 4.09765625 26.22265625 C4.09443359 27.48271484 4.09121094 28.74277344 4.08789062 30.04101562 C4.07953403 31.38151109 4.07106907 32.72200588 4.0625 34.0625 C4.0574866 35.40689942 4.05292342 36.7513006 4.04882812 38.09570312 C4.03699488 41.39717941 4.02050971 44.69856803 4 48 C3.67 48 3.34 48 3 48 C2.56610828 43.09333085 2.13917568 38.18611982 1.71826172 33.27832031 C1.57459478 31.61409787 1.42913456 29.9500291 1.28173828 28.28613281 C0.44606429 18.83790031 -0.2547636 9.49702085 0 0 Z " fill="#D3BF5C" transform="translate(13,96)"/>
<path d="M0 0 C-5.54276511 3.48402378 -10.31665419 5.20639554 -16.8125 6.125 C-17.97394531 6.29257813 -19.13539062 6.46015625 -20.33203125 6.6328125 C-21.65267578 6.81457031 -21.65267578 6.81457031 -23 7 C-23 5.68 -23 4.36 -23 3 C-18.8085251 1.49942666 -14.77274919 0.49739537 -10.375 -0.1875 C-9.26898438 -0.36667969 -8.16296875 -0.54585937 -7.0234375 -0.73046875 C-4.29219333 -0.97395176 -2.56077546 -0.88065693 0 0 Z " fill="#F4DE58" transform="translate(137,137)"/>
<path d="M0 0 C7.26 0 14.52 0 22 0 C22.33 0.99 22.66 1.98 23 3 C22.67 3.66 22.34 4.32 22 5 C21.7677354 7.71262116 21.58063765 10.40773126 21.4375 13.125 C21.39431641 13.87910156 21.35113281 14.63320312 21.30664062 15.41015625 C21.2005168 17.27321888 21.09974999 19.13658524 21 21 C20.67 21 20.34 21 20 21 C20 14.4 20 7.8 20 1 C11.78601582 1.46740603 11.78601582 1.46740603 3.75 3.0625 C-0.40576986 4.10144247 -3.74161174 4.1520853 -8 4 C-8 3.67 -8 3.34 -8 3 C-5.36 2.67 -2.72 2.34 0 2 C0 1.34 0 0.68 0 0 Z " fill="#F2E072" transform="translate(152,107)"/>
<path d="M0 0 C0.66 0 1.32 0 2 0 C2.4323088 4.26789969 2.85935089 8.53628549 3.28173828 12.80517578 C3.42583578 14.25420995 3.57131586 15.70310738 3.71826172 17.15185547 C3.93049092 19.24671648 4.13757129 21.34203584 4.34375 23.4375 C4.46943359 24.69433594 4.59511719 25.95117188 4.72460938 27.24609375 C5.01400448 31.19089801 5.04596936 35.04663543 5 39 C1.78204504 34.17306757 1.80881436 29.75236162 1.5625 24.0625 C1.23799265 17.42296533 0.50132551 10.99013069 -0.6953125 4.44140625 C-1 2 -1 2 0 0 Z " fill="#FBF6D6" transform="translate(3,9)"/>
<path d="M0 0 C-5.06196426 3.37464284 -10.34569113 4.67209662 -16.1875 6.0625 C-21.22112732 7.15895892 -21.22112732 7.15895892 -26 9 C-27.99960012 9.039992 -30.00047242 9.04346799 -32 9 C-32 8.67 -32 8.34 -32 8 C-31.071875 7.731875 -30.14375 7.46375 -29.1875 7.1875 C-26.05820158 6.29109431 -26.05820158 6.29109431 -24.55859375 4.4609375 C-22.59778984 2.62299098 -21.52588635 2.58477146 -18.875 2.4375 C-15.56621318 2.17883263 -12.47755389 1.71470361 -9.25 0.9375 C-6.09283122 0.19105905 -3.26452575 -0.21061456 0 0 Z " fill="#D2C35C" transform="translate(176,216)"/>
<path d="M0 0 C7.18748393 0.79860933 10.80437771 1.40910341 17 4 C17 4.33 17 4.66 17 5 C15.37536158 5.05395478 13.75021459 5.09277195 12.125 5.125 C10.76761719 5.15980469 10.76761719 5.15980469 9.3828125 5.1953125 C7 5 7 5 5 3 C3.68 2.67 2.36 2.34 1 2 C1.33 8.27 1.66 14.54 2 21 C4.31 21.99 6.62 22.98 9 24 C7 25 7 25 0 23 C0 15.41 0 7.82 0 0 Z " fill="#F3E9C8" transform="translate(39,148)"/>
<path d="M0 0 C7.49950501 1.52532305 14.70297353 3.70719247 22 6 C28.28155031 7.87344483 34.63656579 9.43265167 41 11 C41 11.33 41 11.66 41 12 C35.63108121 11.50130596 30.30764827 10.97772468 25 10 C25 9.34 25 8.68 25 8 C23.99324219 7.86207031 22.98648438 7.72414062 21.94921875 7.58203125 C18.21461219 7.03162929 14.51737982 6.41069901 10.8125 5.6875 C9.62269531 5.46449219 8.43289062 5.24148437 7.20703125 5.01171875 C3.75592661 3.92300243 2.28514383 2.75011106 0 0 Z " fill="#CEB94F" transform="translate(39,171)"/>
<path d="M0 0 C0.99 0.33 1.98 0.66 3 1 C3.2370619 7.04507857 2.49500827 12.62734346 1.51171875 18.58984375 C0.74391967 23.70655058 0.35327375 28.84034398 0 34 C-0.33 34 -0.66 34 -1 34 C-1.02918634 29.64584756 -1.04686145 25.29172052 -1.0625 20.9375 C-1.07087891 19.70837891 -1.07925781 18.47925781 -1.08789062 17.21289062 C-1.10363389 11.37213863 -1.08469508 5.74802983 0 0 Z " fill="#FBF6DA" transform="translate(205,9)"/>
<path d="M0 0 C1.5 1.375 1.5 1.375 3 3 C3 3.66 3 4.32 3 5 C3.9590625 5.2165625 3.9590625 5.2165625 4.9375 5.4375 C7 6 7 6 8 7 C8.70125 6.855625 9.4025 6.71125 10.125 6.5625 C13.46458456 5.90910302 16.60520991 5.93343549 20 6 C16.05688666 8.52274456 11.79179211 8.66554839 7.25 9.125 C6.45722656 9.21136719 5.66445312 9.29773438 4.84765625 9.38671875 C2.89916859 9.59800054 0.94967024 9.79992467 -1 10 C-1.02689216 8.52093108 -1.04634621 7.04172517 -1.0625 5.5625 C-1.07410156 4.73878906 -1.08570312 3.91507813 -1.09765625 3.06640625 C-1 1 -1 1 0 0 Z " fill="#FCF8E6" transform="translate(116,175)"/>
<path d="M0 0 C7.10377673 1.01791923 14.07511433 2.09905099 21 4 C21 4.33 21 4.66 21 5 C19.453125 4.9690625 19.453125 4.9690625 17.875 4.9375 C14.44847031 4.99276661 11.35427586 5.34550715 8 6 C7.67 5.34 7.34 4.68 7 4 C4.69 4 2.38 4 0 4 C0 2.68 0 1.36 0 0 Z " fill="#FCF8E8" transform="translate(32,218)"/>
<path d="M0 0 C0.33 0 0.66 0 1 0 C1 2.64 1 5.28 1 8 C0.67 7.01 0.34 6.02 0 5 C-6.6 5 -13.2 5 -20 5 C-19.67 4.01 -19.34 3.02 -19 2 C-13.06 2.33 -7.12 2.66 -1 3 C-0.67 2.01 -0.34 1.02 0 0 Z " fill="#D2C056" transform="translate(97,48)"/>
<path d="M0 0 C0 0.66 0 1.32 0 2 C-1.65 2.33 -3.3 2.66 -5 3 C-5 3.66 -5 4.32 -5 5 C-3.35 5 -1.7 5 0 5 C0 4.34 0 3.68 0 3 C1.65 3.33 3.3 3.66 5 4 C0.66322198 6.47815887 -3.10968368 6.45248478 -8 6 C-11.0625 5 -11.0625 5 -13 4 C-12.1028125 3.566875 -12.1028125 3.566875 -11.1875 3.125 C-4.70454545 -0.20909091 -4.70454545 -0.20909091 0 0 Z " fill="#D5BE52" transform="translate(107,230)"/>
<path d="M0 0 C2.46884363 3.70326544 2.16413653 6.31781516 1.875 10.5625 C1.84019531 11.59020508 1.84019531 11.59020508 1.8046875 12.63867188 C1.6796875 14.62890625 1.6796875 14.62890625 1 18 C-0.98 18.99 -0.98 18.99 -3 20 C-2.67 15.38 -2.34 10.76 -2 6 C-1.34 6 -0.68 6 0 6 C0 4.02 0 2.04 0 0 Z " fill="#FEFBEC" transform="translate(155,134)"/>
<path d="M0 0 C6.30267439 0.36776168 11.33251843 1.16625922 17 4 C13.67465243 5.10844919 11.37817425 4.84454356 8 4 C8 4.66 8 5.32 8 6 C7.01 6 6.02 6 5 6 C5 5.01 5 4.02 5 3 C2.525 2.01 2.525 2.01 0 1 C0 0.67 0 0.34 0 0 Z " fill="#F0E5CC" transform="translate(56,153)"/>
<path d="M0 0 C0.33 0 0.66 0 1 0 C1.07404737 4.94788314 1.12855246 9.89544524 1.16479492 14.84375 C1.17990003 16.5277264 1.20038546 18.21166335 1.22631836 19.89550781 C1.26262721 22.31324993 1.27970847 24.73047292 1.29296875 27.1484375 C1.30845261 27.9036972 1.32393646 28.65895691 1.33988953 29.43710327 C1.34057617 31.56005859 1.34057617 31.56005859 1 35 C0.01 35.66 -0.98 36.32 -2 37 C-1.88068785 33.01627871 -1.7563839 29.03274578 -1.62768555 25.04931641 C-1.56367259 23.03686399 -1.5034803 21.0242912 -1.44335938 19.01171875 C-1.2343934 12.61414496 -0.96099916 6.33128859 0 0 Z " fill="#F2DC57" transform="translate(171,128)"/>
<path d="M0 0 C1.1446875 0.28617188 2.289375 0.57234375 3.46875 0.8671875 C4.19964844 1.04991211 4.93054687 1.23263672 5.68359375 1.42089844 C6.44800781 1.61200195 7.21242188 1.80310547 8 2 C9.06927734 2.26731934 9.06927734 2.26731934 10.16015625 2.54003906 C10.86011719 2.7150293 11.56007813 2.89001953 12.28125 3.0703125 C12.97734375 3.24433594 13.6734375 3.41835937 14.390625 3.59765625 C15.828125 3.95703125 17.265625 4.31640625 18.703125 4.67578125 C19.38890625 4.84722656 20.0746875 5.01867187 20.78125 5.1953125 C21.8434375 5.46085938 22.905625 5.72640625 24 6 C20.91190305 7.76462683 19.76687864 8 16 8 C16 7.34 16 6.68 16 6 C11.34947128 5.73067479 11.34947128 5.73067479 7 7 C7 6.01 7 5.02 7 4 C4.69 3.34 2.38 2.68 0 2 C0 1.34 0 0.68 0 0 Z " fill="#F8F5D1" transform="translate(56,223)"/>
<path d="M0 0 C6.93 0.495 6.93 0.495 14 1 C14 1.33 14 1.66 14 2 C16.64 2.33 19.28 2.66 22 3 C22 3.99 22 4.98 22 6 C17.20328611 5.51219859 13.45705531 4.84804733 9 3 C6.01563383 2.25643758 3.01283874 1.61700837 0 1 C0 0.67 0 0.34 0 0 Z " fill="#EBDDB0" transform="translate(58,176)"/>
<path d="M0 0 C0.33 0 0.66 0 1 0 C1 1.98 1 3.96 1 6 C1.556875 6.12117187 2.11375 6.24234375 2.6875 6.3671875 C7.81564662 7.49330078 12.91192278 8.70485307 18 10 C18 10.33 18 10.66 18 11 C15.93690624 10.88521587 13.87451646 10.75773802 11.8125 10.625 C10.66394531 10.55539063 9.51539063 10.48578125 8.33203125 10.4140625 C5.20040883 10.02490426 2.84714191 9.3190149 0 8 C0 5.36 0 2.72 0 0 Z " fill="#FBF5CD" transform="translate(22,208)"/>
<path d="M0 0 C5.86646465 -0.30343783 8.73791469 0.26371564 14 3 C16.63277025 3.59086599 19.26044349 4.0543297 21.92578125 4.47265625 C22.61027344 4.64667969 23.29476562 4.82070312 24 5 C24.33 5.66 24.66 6.32 25 7 C16.44943104 5.68452785 8.24966649 3.58340287 0 1 C0 0.67 0 0.34 0 0 Z " fill="#D8CA72" transform="translate(32,216)"/>
<path d="M0 0 C0 0.33 0 0.66 0 1 C-1.72807318 1.33895656 -3.45751974 1.67091525 -5.1875 2 C-6.63189453 2.2784375 -6.63189453 2.2784375 -8.10546875 2.5625 C-10.7934206 2.96877612 -13.28771019 3.07933572 -16 3 C-16 3.66 -16 4.32 -16 5 C-17.98 5 -19.96 5 -22 5 C-19.82764172 1.74146258 -19.62320167 1.56584918 -16.0625 0.8125 C-10.71284645 -0.24174769 -5.43031968 -0.18270234 0 0 Z " fill="#F4DA5E" transform="translate(144,155)"/>
<path d="M0 0 C-6.27087737 3.71607548 -10.75460274 4.53449652 -18 4 C-17.67 3.34 -17.34 2.68 -17 2 C-14.56640625 1.40234375 -14.56640625 1.40234375 -11.5625 0.9375 C-1.93677015 -0.58103105 -1.93677015 -0.58103105 0 0 Z " fill="#F1DE5B" transform="translate(142,181)"/>
<path d="M0 0 C2.64 0 5.28 0 8 0 C0.40361685 4.07265297 -7.46917899 5.41954857 -16 5 C-16 4.67 -16 4.34 -16 4 C-10.61972975 2.80911014 -5.54708616 1.7080481 0 2 C0 1.34 0 0.68 0 0 Z " fill="#FCF1B8" transform="translate(144,154)"/>
<path d="M0 0 C-3.50776784 1.60355101 -6.14354879 2.22036864 -10 2 C-10 2.66 -10 3.32 -10 4 C-13.21451269 5.60725635 -16.43612536 5.05748185 -20 5 C-18 3 -18 3 -15.375 2.875 C-14.59125 2.91625 -13.8075 2.9575 -13 3 C-13 2.34 -13 1.68 -13 1 C-11.20994059 0.63779734 -9.41787943 0.28547531 -7.625 -0.0625 C-6.12839844 -0.35833984 -6.12839844 -0.35833984 -4.6015625 -0.66015625 C-2 -1 -2 -1 0 0 Z " fill="#F4E785" transform="translate(162,175)"/>
<path d="M0 0 C2.97 0 5.94 0 9 0 C9.33 0.99 9.66 1.98 10 3 C9.67 3.33 9.34 3.66 9 4 C7.47480724 3.91062197 5.95318071 3.75462854 4.4375 3.5625 C3.19806641 3.40974609 3.19806641 3.40974609 1.93359375 3.25390625 C1.29550781 3.17011719 0.65742187 3.08632812 0 3 C0 2.01 0 1.02 0 0 Z " fill="#FCF9E9" transform="translate(112,234)"/>
<path d="M0 0 C1.9587043 0.14076315 3.91696093 0.2877676 5.875 0.4375 C7.51082031 0.55931641 7.51082031 0.55931641 9.1796875 0.68359375 C12 1 12 1 14 2 C14 2.66 14 3.32 14 4 C14.66 4.33 15.32 4.66 16 5 C10.34979382 4.39891424 5.33835539 2.92471317 0 1 C0 0.67 0 0.34 0 0 Z " fill="#D8C869" transform="translate(58,223)"/>
<path d="M0 0 C2.31 0.33 4.62 0.66 7 1 C2.25294723 4.16470185 -1.31771295 4.10927475 -7 4 C-7 4.66 -7 5.32 -7 6 C-8.65 6 -10.3 6 -12 6 C-8.5497566 2.82577607 -5.54909569 2.60082396 -1 2 C-0.67 1.34 -0.34 0.68 0 0 Z " fill="#FCFBD8" transform="translate(156,172)"/>
<path d="M0 0 C5.69305433 1.23876645 11.35370013 2.56276003 17 4 C17 4.33 17 4.66 17 5 C14.91587093 4.93976506 12.83255565 4.85091679 10.75 4.75 C9.58984375 4.70359375 8.4296875 4.6571875 7.234375 4.609375 C3.53338618 3.91208725 2.32877571 2.88214816 0 0 Z " fill="#D0BF60" transform="translate(39,171)"/>
<path d="M0 0 C0.66 0 1.32 0 2 0 C2 1.98 2 3.96 2 6 C-1.87684087 7.19287411 -4.91621923 8 -9 8 C-9 7.34 -9 6.68 -9 6 C-5.535 5.505 -5.535 5.505 -2 5 C-1.34 3.35 -0.68 1.7 0 0 Z " fill="#CEBD58" transform="translate(185,208)"/>
<path d="M0 0 C0.33 0 0.66 0 1 0 C1 3.3 1 6.6 1 10 C-0.98 10 -2.96 10 -5 10 C-5.33 9.01 -5.66 8.02 -6 7 C-4.35 6.67 -2.7 6.34 -1 6 C-0.67 4.02 -0.34 2.04 0 0 Z " fill="#FBFCEA" transform="translate(174,65)"/>
<path d="M0 0 C1.58409994 0.11487748 3.16728963 0.24234508 4.75 0.375 C6.07257813 0.47941406 6.07257813 0.47941406 7.421875 0.5859375 C9.99066382 0.99850055 11.75841015 1.71160957 14 3 C12.22992286 3.08114106 10.45877902 3.13925505 8.6875 3.1875 C7.70136719 3.22230469 6.71523437 3.25710937 5.69921875 3.29296875 C3 3 3 3 1.14453125 1.48828125 C0.76683594 0.99714844 0.38914062 0.50601563 0 0 Z " fill="#D4BF62" transform="translate(83,184)"/>
<path d="M0 0 C0.33 0 0.66 0 1 0 C0.67 5.28 0.34 10.56 0 16 C-0.33 16 -0.66 16 -1 16 C-1.22281874 14.08496326 -1.42771076 12.16783494 -1.625 10.25 C-1.74101562 9.18265625 -1.85703125 8.1153125 -1.9765625 7.015625 C-2.00029475 3.96207601 -1.61420985 2.53837579 0 0 Z " fill="#EFCD3F" transform="translate(174,168)"/>
<path d="M0 0 C0 0.99 0 1.98 0 3 C-4.62 3.33 -9.24 3.66 -14 4 C-11.36505677 2.24337118 -9.96001018 1.58136607 -7 0.875 C-6.319375 0.70742187 -5.63875 0.53984375 -4.9375 0.3671875 C-3 0 -3 0 0 0 Z " fill="#F1E9B6" transform="translate(136,228)"/>
<path d="M0 0 C-5.00932754 3.00559652 -8.32723489 3.29341888 -14 3 C-9.7368213 0.15788087 -5.03577274 -2.0143091 0 0 Z " fill="#F8F1CA" transform="translate(166,221)"/>
<path d="M0 0 C2.64 0.66 5.28 1.32 8 2 C5.4345406 4.5654594 3.52313332 4.54046087 0 5 C0 3.35 0 1.7 0 0 Z " fill="#FCF9E0" transform="translate(136,176)"/>
<path d="M0 0 C0.99 0 1.98 0 3 0 C3.66 1.65 4.32 3.3 5 5 C2.36 5 -0.28 5 -3 5 C-2.505 4.54625 -2.01 4.0925 -1.5 3.625 C0.22609337 2.12364481 0.22609337 2.12364481 0 0 Z " fill="#F8D94E" transform="translate(169,102)"/>
<path d="M0 0 C2.64 0 5.28 0 8 0 C8 0.99 8 1.98 8 3 C5.36 2.67 2.72 2.34 0 2 C0 1.34 0 0.68 0 0 Z " fill="#F1E1B9" transform="translate(72,179)"/>
<path d="M0 0 C-0.33 1.65 -0.66 3.3 -1 5 C-1.66 5 -2.32 5 -3 5 C-3.33 4.34 -3.66 3.68 -4 3 C-6.02463255 2.34786708 -6.02463255 2.34786708 -8 2 C-5.09399739 0.74335022 -3.20395416 0 0 0 Z " fill="#FADC33" transform="translate(120,187)"/>
<path d="M0 0 C-0.33 0.99 -0.66 1.98 -1 3 C-3.97 3 -6.94 3 -10 3 C-4 0 -4 0 0 0 Z " fill="#FDF4C6" transform="translate(126,160)"/>
<path d="M0 0 C2.97 0 5.94 0 9 0 C6.23776722 2.76223278 3.79293383 2.57856291 0 3 C0 2.01 0 1.02 0 0 Z " fill="#F3DF5C" transform="translate(113,160)"/>
<path d="M0 0 C1.8871875 0.0309375 1.8871875 0.0309375 3.8125 0.0625 C3.8125 0.3925 3.8125 0.7225 3.8125 1.0625 C2.4203125 1.248125 2.4203125 1.248125 1 1.4375 C-2.32675235 1.87783082 -2.32675235 1.87783082 -5.1875 4.0625 C-5.8475 3.7325 -6.5075 3.4025 -7.1875 3.0625 C-7.1875 2.4025 -7.1875 1.7425 -7.1875 1.0625 C-4.43671116 0.14557039 -2.82801087 -0.04636083 0 0 Z " fill="#FDFDE7" transform="translate(154.1875,223.9375)"/>
<path d="M0 0 C0.99 0.33 1.98 0.66 3 1 C2.67 2.65 2.34 4.3 2 6 C0.02 5.34 -1.96 4.68 -4 4 C-2.68 3.67 -1.36 3.34 0 3 C0 2.01 0 1.02 0 0 Z " fill="#FAF9F0" transform="translate(189,212)"/>
<path d="M0 0 C1.32 0.33 2.64 0.66 4 1 C4 2.32 4 3.64 4 5 C2.68 4.67 1.36 4.34 0 4 C0 2.68 0 1.36 0 0 Z " fill="#D0BE27" transform="translate(98,48)"/>
<path d="M0 0 C0.66 0 1.32 0 2 0 C2 2.31 2 4.62 2 7 C1.34 7 0.68 7 0 7 C-1.125 2.25 -1.125 2.25 0 0 Z " fill="#FAF2C7" transform="translate(3,9)"/>
</svg>
